<svg width="28" height="26" viewBox="0 0 28 26" fill="none" xmlns="http://www.w3.org/2000/svg">
<path d="M7.8 20.8C6.37 20.8 5.2 21.97 5.2 23.4C5.2 24.83 6.37 26 7.8 26C9.23 26 10.4 24.83 10.4 23.4C10.4 21.97 9.23 20.8 7.8 20.8ZM0 0V2.6H2.6L7.28 12.48L5.46 15.6C5.33 15.99 5.2 16.51 5.2 16.9C5.2 18.33 6.37 19.5 7.8 19.5H23.4V16.9H8.32C8.19 16.9 8.06 16.77 8.06 16.64V16.51L9.23 14.2999H20.5833C21.6233 14.2999 22.4033 13.7799 22.7933 12.9999L27.4733 4.55C27.7333 4.29 27.7333 4.16 27.7333 3.9C27.7333 3.12 27.2133 2.6 26.4333 2.6H5.46L4.29 0H0ZM20.8 20.8C19.37 20.8 18.2 21.97 18.2 23.4C18.2 24.83 19.37 26 20.8 26C22.23 26 23.4 24.83 23.4 23.4C23.4 21.97 22.23 20.8 20.8 20.8Z" fill="white"/>
</svg>
