<svg width="18" height="18" viewBox="0 0 18 18" fill="none" xmlns="http://www.w3.org/2000/svg">
<path d="M10.7219 10.6191C11.271 10.07 11.5455 9.40741 11.5455 8.63134C11.5455 7.85527 11.271 7.19268 10.7219 6.64357C10.1728 6.09447 9.51016 5.81991 8.73409 5.81991C7.95802 5.81991 7.29543 6.09447 6.74632 6.64357C6.19722 7.19268 5.92266 7.85527 5.92266 8.63134C5.92266 9.40741 6.19722 10.07 6.74632 10.6191C7.29543 11.1682 7.95802 11.4428 8.73409 11.4428C9.51016 11.4428 10.1728 11.1682 10.7219 10.6191ZM11.7981 5.56732C12.6401 6.40929 13.0611 7.43063 13.0611 8.63134C13.0611 9.83205 12.6401 10.8534 11.7981 11.6954C10.9561 12.5373 9.93481 12.9583 8.73409 12.9583C7.53338 12.9583 6.51204 12.5373 5.67007 11.6954C4.82811 10.8534 4.40713 9.83205 4.40713 8.63134C4.40713 7.43063 4.82811 6.40929 5.67007 5.56732C6.51204 4.72536 7.53338 4.30438 8.73409 4.30438C9.93481 4.30438 10.9561 4.72536 11.7981 5.56732ZM13.9506 3.41482C14.1483 3.6125 14.2471 3.85045 14.2471 4.12866C14.2471 4.40688 14.1483 4.64482 13.9506 4.8425C13.7529 5.04018 13.515 5.13902 13.2368 5.13902C12.9586 5.13902 12.7206 5.04018 12.5229 4.8425C12.3253 4.64482 12.2264 4.40688 12.2264 4.12866C12.2264 3.85045 12.3253 3.6125 12.5229 3.41482C12.7206 3.21714 12.9586 3.1183 13.2368 3.1183C13.515 3.1183 13.7529 3.21714 13.9506 3.41482ZM9.56873 1.71259C9.06356 1.71259 8.78534 1.71259 8.73409 1.71259C8.68284 1.71259 8.40097 1.71259 7.88847 1.71259C7.38329 1.70527 6.99891 1.70527 6.73534 1.71259C6.47177 1.71259 6.11668 1.72357 5.67007 1.74554C5.23079 1.76018 4.85373 1.79679 4.53891 1.85536C4.23141 1.90661 3.9715 1.9725 3.75918 2.05304C3.39311 2.19946 3.07097 2.41179 2.79275 2.69C2.51454 2.96821 2.30222 3.29036 2.15579 3.65643C2.07525 3.86875 2.0057 4.13232 1.94713 4.44714C1.89588 4.75464 1.85927 5.1317 1.8373 5.5783C1.82266 6.01759 1.81168 6.36902 1.80436 6.63259C1.80436 6.89616 1.80436 7.2842 1.80436 7.7967C1.81168 8.30188 1.81534 8.58009 1.81534 8.63134C1.81534 8.68259 1.81168 8.96447 1.80436 9.47697C1.80436 9.98214 1.80436 10.3665 1.80436 10.6301C1.81168 10.8937 1.82266 11.2488 1.8373 11.6954C1.85927 12.1346 1.89588 12.5117 1.94713 12.8265C2.0057 13.134 2.07525 13.3939 2.15579 13.6063C2.30222 13.9723 2.51454 14.2945 2.79275 14.5727C3.07097 14.8509 3.39311 15.0632 3.75918 15.2096C3.9715 15.2902 4.23141 15.3597 4.53891 15.4183C4.85373 15.4696 5.23079 15.5062 5.67007 15.5281C6.11668 15.5428 6.47177 15.5538 6.73534 15.5611C6.99891 15.5611 7.38329 15.5611 7.88847 15.5611C8.40097 15.5538 8.68284 15.5501 8.73409 15.5501C8.78534 15.5501 9.06356 15.5538 9.56873 15.5611C10.0812 15.5611 10.4693 15.5611 10.7328 15.5611C10.9964 15.5538 11.3478 15.5428 11.7871 15.5281C12.2337 15.5062 12.6108 15.4696 12.9183 15.4183C13.2331 15.3597 13.4967 15.2902 13.709 15.2096C14.0751 15.0632 14.3972 14.8509 14.6754 14.5727C14.9536 14.2945 15.166 13.9723 15.3124 13.6063C15.3929 13.3939 15.4588 13.134 15.5101 12.8265C15.5686 12.5117 15.6053 12.1346 15.6199 11.6954C15.6419 11.2488 15.6528 10.8937 15.6528 10.6301C15.6602 10.3665 15.6602 9.98214 15.6528 9.47697C15.6528 8.96447 15.6528 8.68259 15.6528 8.63134C15.6528 8.58009 15.6528 8.30188 15.6528 7.7967C15.6602 7.2842 15.6602 6.89616 15.6528 6.63259C15.6528 6.36902 15.6419 6.01759 15.6199 5.5783C15.6053 5.1317 15.5686 4.75464 15.5101 4.44714C15.4588 4.13232 15.3929 3.86875 15.3124 3.65643C15.166 3.29036 14.9536 2.96821 14.6754 2.69C14.3972 2.41179 14.0751 2.19946 13.709 2.05304C13.4967 1.9725 13.2331 1.90661 12.9183 1.85536C12.6108 1.79679 12.2337 1.76018 11.7871 1.74554C11.3478 1.72357 10.9964 1.71259 10.7328 1.71259C10.4693 1.70527 10.0812 1.70527 9.56873 1.71259ZM17.1135 5.15C17.1501 5.79429 17.1684 6.95473 17.1684 8.63134C17.1684 10.3079 17.1501 11.4684 17.1135 12.1127C17.0403 13.6355 16.5863 14.8143 15.7517 15.6489C14.917 16.4836 13.7383 16.9375 12.2154 17.0107C11.5711 17.0473 10.4107 17.0656 8.73409 17.0656C7.05748 17.0656 5.89704 17.0473 5.25275 17.0107C3.72989 16.9375 2.55114 16.4836 1.7165 15.6489C0.881858 14.8143 0.42793 13.6355 0.354715 12.1127C0.318108 11.4684 0.299805 10.3079 0.299805 8.63134C0.299805 6.95473 0.318108 5.79429 0.354715 5.15C0.42793 3.62714 0.881858 2.44839 1.7165 1.61375C2.55114 0.779107 3.72989 0.325179 5.25275 0.251965C5.89704 0.215358 7.05748 0.197054 8.73409 0.197054C10.4107 0.197054 11.5711 0.215358 12.2154 0.251965C13.7383 0.325179 14.917 0.779107 15.7517 1.61375C16.5863 2.44839 17.0403 3.62714 17.1135 5.15Z" fill="white"/>
</svg>
