<svg width="13" height="21" viewBox="0 0 13 21" fill="none" xmlns="http://www.w3.org/2000/svg">
<path d="M9.67396 9.29152C8.70021 10.2653 7.52512 10.7521 6.14869 10.7521C4.77226 10.7521 3.59717 10.2653 2.62342 9.29152C1.64967 8.31777 1.1628 7.14634 1.1628 5.77723C1.1628 4.4008 1.64967 3.22572 2.62342 2.25197C3.59717 1.27821 4.77226 0.791339 6.14869 0.791339C7.52512 0.791339 8.70021 1.27821 9.67396 2.25197C10.6477 3.22572 11.1346 4.4008 11.1346 5.77723C11.1346 7.14634 10.6477 8.31777 9.67396 9.29152ZM7.87289 4.04205C7.39699 3.55884 6.82226 3.31723 6.14869 3.31723C5.47512 3.31723 4.89672 3.55884 4.41351 4.04205C3.93762 4.51795 3.69967 5.09634 3.69967 5.77723C3.69967 6.4508 3.93762 7.0292 4.41351 7.51241C4.89672 7.9883 5.47512 8.22625 6.14869 8.22625C6.82226 8.22625 7.39699 7.9883 7.87289 7.51241C8.3561 7.0292 8.59771 6.4508 8.59771 5.77723C8.59771 5.09634 8.3561 4.51795 7.87289 4.04205ZM11.8924 11.3562C11.9875 11.5538 12.0424 11.7369 12.0571 11.9053C12.0717 12.0663 12.0534 12.2128 12.0022 12.3446C11.9582 12.4763 11.8631 12.6191 11.7166 12.7729C11.5702 12.9193 11.4128 13.0547 11.2444 13.1792C11.0833 13.2963 10.86 13.4464 10.5745 13.6295C9.73253 14.1639 8.5794 14.508 7.11512 14.6618L7.91681 15.4525L10.849 18.3847C11.0687 18.6117 11.1785 18.8826 11.1785 19.1974C11.1785 19.5122 11.0687 19.7795 10.849 19.9991L10.7173 20.1419C10.4903 20.3615 10.2194 20.4713 9.90458 20.4713C9.58976 20.4713 9.31887 20.3615 9.0919 20.1419C8.60137 19.644 7.62396 18.6629 6.15967 17.1987L3.22744 20.1419C3.00047 20.3615 2.72958 20.4713 2.41476 20.4713C2.09994 20.4713 1.83271 20.3615 1.61306 20.1419L1.48128 19.9991C1.25431 19.7795 1.14083 19.5122 1.14083 19.1974C1.14083 18.8826 1.25431 18.6117 1.48128 18.3847L4.41351 15.4525L5.20422 14.6618C3.71797 14.508 2.55753 14.1639 1.72289 13.6295C1.43735 13.4464 1.21039 13.2963 1.04199 13.1792C0.880921 13.0547 0.727171 12.9193 0.580742 12.7729C0.434314 12.6191 0.335474 12.4763 0.284224 12.3446C0.240296 12.2128 0.225653 12.0663 0.240296 11.9053C0.254939 11.7369 0.309849 11.5538 0.405028 11.3562C0.478242 11.2097 0.580742 11.0816 0.712528 10.9718C0.844314 10.862 0.998064 10.7814 1.17378 10.7302C1.34949 10.6789 1.55449 10.6863 1.78878 10.7521C2.02306 10.818 2.26101 10.9462 2.50262 11.1365C2.53922 11.1658 2.59414 11.2061 2.66735 11.2573C2.74056 11.3086 2.89797 11.4001 3.13958 11.5319C3.38119 11.6563 3.63378 11.7662 3.89735 11.8613C4.16092 11.9565 4.49771 12.0444 4.90771 12.1249C5.31771 12.2054 5.73137 12.2457 6.14869 12.2457C6.81494 12.2457 7.4519 12.1542 8.05958 11.9712C8.66726 11.7808 9.10655 11.5941 9.37744 11.4111L9.79476 11.1365C10.0364 10.9462 10.2743 10.818 10.5086 10.7521C10.7429 10.6863 10.9479 10.6789 11.1236 10.7302C11.2993 10.7814 11.4531 10.862 11.5849 10.9718C11.7166 11.0816 11.8191 11.2097 11.8924 11.3562Z" fill="white"/>
</svg>
