<svg width="20" height="22" viewBox="0 0 20 22" fill="none" xmlns="http://www.w3.org/2000/svg">
<path d="M14.8298 9.60714C15.1795 9.71131 15.5106 9.85268 15.8231 10.0312C16.143 10.2098 16.4741 10.4814 16.8164 10.846C17.1661 11.2106 17.4637 11.6421 17.7093 12.1406C17.9548 12.6317 18.1594 13.2716 18.3231 14.0603C18.4868 14.8415 18.5686 15.7195 18.5686 16.6942C18.5686 17.84 18.1966 18.8185 17.4526 19.6295C16.7085 20.4479 15.8119 20.8571 14.7628 20.8571H5.23158C4.18248 20.8571 3.2859 20.4479 2.54185 19.6295C1.79781 18.8185 1.42578 17.84 1.42578 16.6942C1.42578 15.7195 1.50763 14.8415 1.67132 14.0603C1.83501 13.2716 2.03962 12.6317 2.28516 12.1406C2.53069 11.6421 2.82459 11.2106 3.16685 10.846C3.51656 10.4814 3.84766 10.2098 4.16016 10.0312C4.4801 9.85268 4.81492 9.71131 5.16462 9.60714C4.57682 8.67708 4.28292 7.66518 4.28292 6.57143C4.28292 5.79762 4.43173 5.06101 4.72935 4.36161C5.03441 3.65476 5.44364 3.04464 5.95703 2.53125C6.47042 2.01786 7.07682 1.61235 7.77623 1.31473C8.48307 1.00967 9.2234 0.857141 9.99721 0.857141C10.771 0.857141 11.5076 1.00967 12.207 1.31473C12.9139 1.61235 13.524 2.01786 14.0374 2.53125C14.5508 3.04464 14.9563 3.65476 15.2539 4.36161C15.559 5.06101 15.7115 5.79762 15.7115 6.57143C15.7115 7.66518 15.4176 8.67708 14.8298 9.60714ZM13.0218 3.54687C12.1884 2.7061 11.1802 2.28571 9.99721 2.28571C8.81417 2.28571 7.80227 2.7061 6.9615 3.54687C6.12816 4.38021 5.7115 5.38839 5.7115 6.57143C5.7115 7.75446 6.12816 8.76637 6.9615 9.60714C7.80227 10.4405 8.81417 10.8571 9.99721 10.8571C11.1802 10.8571 12.1884 10.4405 13.0218 9.60714C13.8625 8.76637 14.2829 7.75446 14.2829 6.57143C14.2829 5.38839 13.8625 4.38021 13.0218 3.54687ZM14.7628 19.4286C15.4176 19.4286 15.9756 19.1607 16.4369 18.625C16.9057 18.0967 17.1401 17.4531 17.1401 16.6942C17.1401 14.9159 16.8462 13.5134 16.2584 12.4866C15.678 11.4598 14.841 10.9204 13.7472 10.8683C12.6683 11.8132 11.4183 12.2857 9.99721 12.2857C8.57608 12.2857 7.32608 11.8132 6.24721 10.8683C5.15346 10.9204 4.31269 11.4598 3.72489 12.4866C3.14453 13.5134 2.85435 14.9159 2.85435 16.6942C2.85435 17.4531 3.08501 18.0967 3.54632 18.625C4.01507 19.1607 4.57682 19.4286 5.23158 19.4286H14.7628Z" fill="#4F4F4F"/>
<path d="M14.8298 9.60714L14.4071 9.34002L14.0545 9.89792L14.6871 10.0863L14.8298 9.60714ZM15.8231 10.0312L15.575 10.4654L15.5794 10.4678L15.8231 10.0312ZM16.8164 10.846L16.4518 11.1882L16.4556 11.1921L16.8164 10.846ZM17.7093 12.1406L17.2607 12.3616L17.2621 12.3642L17.7093 12.1406ZM18.3231 14.0603L17.8335 14.1619L17.8337 14.1628L18.3231 14.0603ZM17.4526 19.6295L17.0841 19.2914L17.0826 19.2931L17.4526 19.6295ZM2.54185 19.6295L2.91183 19.2931L2.91029 19.2914L2.54185 19.6295ZM1.67132 14.0603L2.16069 14.1628L2.16088 14.1619L1.67132 14.0603ZM2.28516 12.1406L2.73238 12.3642L2.7337 12.3615L2.28516 12.1406ZM3.16685 10.846L2.80599 10.4998L2.80232 10.5038L3.16685 10.846ZM4.16016 10.0312L3.91646 9.59463L3.91209 9.59713L4.16016 10.0312ZM5.16462 9.60714L5.30736 10.0863L5.93988 9.89792L5.58728 9.34002L5.16462 9.60714ZM4.72935 4.36161L4.27028 4.16348L4.26928 4.16583L4.72935 4.36161ZM5.95703 2.53125L5.60348 2.1777L5.60348 2.1777L5.95703 2.53125ZM7.77623 1.31473L7.97201 1.77481L7.97435 1.7738L7.77623 1.31473ZM12.207 1.31473L12.0071 1.77307L12.013 1.77555L12.207 1.31473ZM15.2539 4.36161L14.7931 4.55565L14.7956 4.5615L15.2539 4.36161ZM13.0218 3.54687L12.6666 3.89887L12.6698 3.902L13.0218 3.54687ZM6.9615 3.54687L6.60794 3.19332L6.60794 3.19332L6.9615 3.54687ZM6.9615 9.60714L6.60636 9.95914L6.60952 9.96226L6.9615 9.60714ZM13.0218 9.60714L12.6682 9.25359L13.0218 9.60714ZM16.4369 18.625L16.0629 18.2931L16.0581 18.2987L16.4369 18.625ZM16.2584 12.4866L15.8231 12.7326L15.8244 12.735L16.2584 12.4866ZM13.7472 10.8683L13.771 10.3689L13.5695 10.3593L13.4178 10.4922L13.7472 10.8683ZM6.24721 10.8683L6.57665 10.4922L6.42491 10.3593L6.22343 10.3689L6.24721 10.8683ZM3.72489 12.4866L3.29095 12.2382L3.28961 12.2406L3.72489 12.4866ZM3.54632 18.625L3.1697 18.9539L3.17003 18.9543L3.54632 18.625ZM14.6871 10.0863C15.0006 10.1797 15.2963 10.3061 15.575 10.4654L16.0712 9.59713C15.7249 9.39928 15.3585 9.2429 14.9725 9.12795L14.6871 10.0863ZM15.5794 10.4678C15.8415 10.6141 16.1329 10.8484 16.4519 11.1882L17.1809 10.5038C16.8154 10.1144 16.4446 9.80554 16.0668 9.59465L15.5794 10.4678ZM16.4556 11.1921C16.7664 11.5162 17.0356 11.9045 17.2607 12.3615L18.1578 11.9197C17.8919 11.3798 17.5658 10.9049 17.1772 10.4999L16.4556 11.1921ZM17.2621 12.3642C17.4815 12.8032 17.6749 13.3977 17.8335 14.1619L18.8127 13.9587C18.6439 13.1454 18.4281 12.4602 18.1565 11.917L17.2621 12.3642ZM17.8337 14.1628C17.989 14.9039 18.0686 15.7467 18.0686 16.6942H19.0686C19.0686 15.6923 18.9846 14.7791 18.8125 13.9577L17.8337 14.1628ZM18.0686 16.6942C18.0686 17.7205 17.7398 18.5768 17.0841 19.2914L17.821 19.9675C18.6534 19.0601 19.0686 17.9595 19.0686 16.6942H18.0686ZM17.0826 19.2931C16.4275 20.0137 15.6627 20.3571 14.7628 20.3571V21.3571C15.9612 21.3571 16.9895 20.8821 17.8225 19.9658L17.0826 19.2931ZM14.7628 20.3571H5.23159V21.3571H14.7628V20.3571ZM5.23159 20.3571C4.33177 20.3571 3.56692 20.0137 2.91182 19.2931L2.17188 19.9658C3.00488 20.8821 4.03319 21.3571 5.23159 21.3571V20.3571ZM2.91029 19.2914C2.25461 18.5768 1.92578 17.7205 1.92578 16.6942H0.925781C0.925781 17.9595 1.341 19.0601 2.17342 19.9675L2.91029 19.2914ZM1.92578 16.6942C1.92578 15.7467 2.00541 14.9039 2.16069 14.1628L1.18194 13.9577C1.00984 14.7791 0.925781 15.6923 0.925781 16.6942H1.92578ZM2.16088 14.1619C2.31948 13.3977 2.51288 12.8032 2.73237 12.3642L1.83794 11.917C1.56637 12.4602 1.35054 13.1454 1.18175 13.9587L2.16088 14.1619ZM2.7337 12.3615C2.95979 11.9025 3.22651 11.513 3.53139 11.1882L2.80232 10.5038C2.42268 10.9082 2.1016 11.3817 1.83661 11.9197L2.7337 12.3615ZM3.52769 11.1921C3.85648 10.8493 4.15034 10.6127 4.40823 10.4654L3.91209 9.59713C3.54497 9.80691 3.17663 10.1135 2.80601 10.4999L3.52769 11.1921ZM4.40384 10.4678C4.69193 10.3071 4.99291 10.18 5.30736 10.0863L5.02188 9.12795C4.63693 9.24262 4.26827 9.3983 3.91647 9.59465L4.40384 10.4678ZM5.58728 9.34002C5.04969 8.48939 4.78292 7.57002 4.78292 6.57143H3.78292C3.78292 7.76033 4.10396 8.86477 4.74196 9.87427L5.58728 9.34002ZM4.78292 6.57143C4.78292 5.86365 4.91864 5.19374 5.18943 4.55738L4.26928 4.16583C3.94483 4.92828 3.78292 5.73158 3.78292 6.57143H4.78292ZM5.18842 4.55973C5.46998 3.90735 5.84452 3.35087 6.31059 2.8848L5.60348 2.1777C5.04276 2.73842 4.59885 3.40217 4.27028 4.16348L5.18842 4.55973ZM6.31058 2.8848C6.77658 2.4188 7.32872 2.04855 7.97201 1.77481L7.58045 0.854654C6.82492 1.17615 6.16426 1.61691 5.60348 2.1777L6.31058 2.8848ZM7.97435 1.7738C8.61831 1.49589 9.29118 1.35714 9.99721 1.35714V0.357141C9.15562 0.357141 8.34784 0.523457 7.5781 0.85566L7.97435 1.7738ZM9.99721 1.35714C10.7032 1.35714 11.3717 1.49587 12.0071 1.77303L12.4069 0.856429C11.6436 0.52347 10.8388 0.357141 9.99721 0.357141V1.35714ZM12.013 1.77555C12.6636 2.0495 13.2187 2.41969 13.6838 2.8848L14.3909 2.1777C13.8293 1.61602 13.1641 1.1752 12.4011 0.853913L12.013 1.77555ZM13.6838 2.8848C14.1489 3.34992 14.5191 3.905 14.7931 4.55563L15.7147 4.16758C15.3934 3.40453 14.9526 2.73937 14.3909 2.1777L13.6838 2.8848ZM14.7956 4.5615C15.0728 5.19694 15.2115 5.86541 15.2115 6.57143H16.2115C16.2115 5.72983 16.0452 4.92508 15.7122 4.16171L14.7956 4.5615ZM15.2115 6.57143C15.2115 7.57002 14.9447 8.48939 14.4071 9.34002L15.2525 9.87427C15.8905 8.86477 16.2115 7.76033 16.2115 6.57143H15.2115ZM13.3769 3.1949C12.4497 2.25946 11.3137 1.78571 9.99721 1.78571V2.78571C11.0468 2.78571 11.9271 3.15274 12.6666 3.89885L13.3769 3.1949ZM9.99721 1.78571C8.68081 1.78571 7.54195 2.25931 6.60794 3.19332L7.31505 3.90043C8.06259 3.15289 8.94754 2.78571 9.99721 2.78571V1.78571ZM6.60794 3.19332C5.68044 4.12083 5.2115 5.25636 5.2115 6.57143H6.2115C6.2115 5.52043 6.57589 4.63959 7.31505 3.90043L6.60794 3.19332ZM5.2115 6.57143C5.2115 7.8864 5.6803 9.02478 6.60637 9.95912L7.31662 9.25516C6.57603 8.50796 6.2115 7.62253 6.2115 6.57143H5.2115ZM6.60952 9.96226C7.54386 10.8883 8.68224 11.3571 9.99721 11.3571V10.3571C8.94611 10.3571 8.06068 9.99261 7.31347 9.25202L6.60952 9.96226ZM9.99721 11.3571C11.3123 11.3571 12.4478 10.8882 13.3753 9.9607L12.6682 9.25359C11.929 9.99275 11.0482 10.3571 9.99721 10.3571V11.3571ZM13.3753 9.9607C14.3093 9.02669 14.7829 7.88783 14.7829 6.57143H13.7829C13.7829 7.6211 13.4158 8.50605 12.6682 9.25359L13.3753 9.9607ZM14.7829 6.57143C14.7829 5.25492 14.3092 4.11891 13.3737 3.19175L12.6698 3.902C13.4159 4.6415 13.7829 5.52187 13.7829 6.57143H14.7829ZM14.7628 19.9286C15.5758 19.9286 16.2681 19.5873 16.8158 18.9513L16.0581 18.2987C15.6832 18.7341 15.2594 18.9286 14.7628 18.9286V19.9286ZM16.8109 18.9569C17.3672 18.3299 17.6401 17.5655 17.6401 16.6942H16.6401C16.6401 17.3407 16.4442 17.8635 16.0629 18.2931L16.8109 18.9569ZM17.6401 16.6942C17.6401 14.8693 17.3398 13.3694 16.6923 12.2382L15.8244 12.735C16.3525 13.6574 16.6401 14.9625 16.6401 16.6942H17.6401ZM16.6937 12.2406C16.0366 11.0781 15.0516 10.4299 13.771 10.3689L13.7234 11.3677C14.6303 11.4109 15.3194 11.8416 15.8231 12.7326L16.6937 12.2406ZM13.4178 10.4922C12.4292 11.3581 11.2959 11.7857 9.99721 11.7857V12.7857C11.5408 12.7857 12.9075 12.2684 14.0766 11.2444L13.4178 10.4922ZM9.99721 11.7857C8.6985 11.7857 7.56527 11.3581 6.57665 10.4922L5.91777 11.2444C7.08689 12.2684 8.45366 12.7857 9.99721 12.7857V11.7857ZM6.22343 10.3689C4.94326 10.4298 3.95545 11.0774 3.29096 12.2382L4.15882 12.735C4.66992 11.8422 5.36366 11.4109 6.27099 11.3677L6.22343 10.3689ZM3.28961 12.2406C2.65061 13.3711 2.35435 14.8701 2.35435 16.6942H3.35435C3.35435 14.9618 3.63845 13.6557 4.16017 12.7326L3.28961 12.2406ZM2.35435 16.6942C2.35435 17.5633 2.62205 18.3267 3.1697 18.9539L3.92293 18.2961C3.54796 17.8667 3.35435 17.3429 3.35435 16.6942H2.35435ZM3.17003 18.9543C3.7244 19.5878 4.41906 19.9286 5.23159 19.9286V18.9286C4.73459 18.9286 4.30574 18.7336 3.92261 18.2957L3.17003 18.9543ZM5.23159 19.9286H14.7628V18.9286H5.23159V19.9286Z" fill="#4F4F4F"/>
</svg>
