<svg width="22" height="13" viewBox="0 0 22 13" fill="none" xmlns="http://www.w3.org/2000/svg">
<path d="M21.0728 1.50205C21.2412 1.97063 20.6921 3.04688 19.4255 4.7308C19.2498 4.96509 19.0118 5.27625 18.7116 5.66429C18.4188 6.03768 18.2174 6.30125 18.1076 6.455C17.9978 6.60875 17.8843 6.79179 17.7672 7.00411C17.6573 7.20911 17.6134 7.36286 17.6354 7.46536C17.6647 7.56054 17.7123 7.685 17.7781 7.83875C17.8514 7.9925 17.9722 8.14991 18.1406 8.31098C18.3089 8.47205 18.5176 8.66607 18.7665 8.89304C18.7958 8.90768 18.8141 8.92232 18.8214 8.93697C19.8538 9.89607 20.553 10.7051 20.919 11.364C20.941 11.4006 20.963 11.4482 20.9849 11.5068C21.0142 11.558 21.0398 11.6532 21.0618 11.7923C21.0911 11.9314 21.0911 12.0559 21.0618 12.1657C21.0325 12.2755 20.941 12.378 20.7873 12.4732C20.6335 12.5611 20.4175 12.605 20.1393 12.605L17.3279 12.6489C17.1522 12.6855 16.9472 12.6672 16.7129 12.594C16.4786 12.5208 16.2882 12.4403 16.1418 12.3524L15.9222 12.2206C15.7025 12.0669 15.4463 11.8326 15.1534 11.5178C14.8606 11.2029 14.608 10.9211 14.3956 10.6721C14.1906 10.4159 13.9673 10.2036 13.7257 10.0352C13.4914 9.85947 13.2864 9.80089 13.1107 9.85947C13.0888 9.86679 13.0595 9.88143 13.0229 9.90339C12.9863 9.91804 12.924 9.96929 12.8362 10.0571C12.7483 10.145 12.6678 10.2548 12.5946 10.3866C12.5287 10.5111 12.4664 10.7014 12.4079 10.9577C12.3566 11.2066 12.3347 11.4885 12.342 11.8033C12.342 11.9131 12.3273 12.0156 12.2981 12.1108C12.2761 12.1987 12.2505 12.2646 12.2212 12.3085L12.1773 12.3634C12.0455 12.5025 11.8514 12.583 11.5952 12.605H10.3323C9.81243 12.6343 9.27797 12.5757 8.72886 12.4293C8.17975 12.2755 7.69654 12.0815 7.27922 11.8472C6.86922 11.6056 6.49216 11.364 6.14806 11.1224C5.81127 10.8735 5.55502 10.6612 5.37931 10.4854L5.10475 10.2219C5.03154 10.1487 4.92904 10.0388 4.79725 9.89241C4.67279 9.74598 4.41288 9.41286 4.01752 8.89304C3.62216 8.37322 3.23413 7.82045 2.85341 7.23473C2.4727 6.64902 2.02243 5.87661 1.50261 4.9175C0.990109 3.95839 0.514216 2.96268 0.0749302 1.93036C0.0310017 1.81321 0.00903739 1.71438 0.00903739 1.63384C0.00903739 1.5533 0.0200195 1.49473 0.0419838 1.45813L0.0859124 1.39223C0.195734 1.25313 0.404395 1.18357 0.711895 1.18357L3.721 1.16161C3.80886 1.17625 3.89306 1.20188 3.97359 1.23848C4.05413 1.26777 4.1127 1.29705 4.14931 1.32634L4.20422 1.35929C4.32136 1.43982 4.40922 1.55697 4.46779 1.71072C4.61422 2.07679 4.78261 2.4575 4.97297 2.85286C5.16332 3.24089 5.31341 3.53741 5.42323 3.74241L5.59895 4.06089C5.81127 4.50018 6.01627 4.88089 6.21395 5.20304C6.41163 5.52518 6.58734 5.77777 6.74109 5.9608C6.90216 6.13652 7.05591 6.27563 7.20234 6.37813C7.34877 6.48063 7.47323 6.53188 7.57573 6.53188C7.67823 6.53188 7.77707 6.51357 7.87225 6.47697C7.88689 6.46964 7.9052 6.45134 7.92716 6.42205C7.94913 6.39277 7.99306 6.31223 8.05895 6.18045C8.12484 6.04866 8.17243 5.87661 8.20172 5.66429C8.23832 5.45197 8.27493 5.15545 8.31154 4.77473C8.34815 4.39402 8.34815 3.93643 8.31154 3.40197C8.2969 3.10911 8.26395 2.84188 8.2127 2.60027C8.16145 2.35866 8.1102 2.19027 8.05895 2.09509L7.99306 1.9633C7.81002 1.71438 7.49886 1.55697 7.05957 1.49107C6.96439 1.47643 6.9827 1.38857 7.11448 1.2275C7.23163 1.08839 7.37073 0.978573 7.53181 0.898037C7.91984 0.707679 8.79475 0.619822 10.1565 0.634465C10.7569 0.641787 11.2511 0.689376 11.6391 0.777232C11.7856 0.81384 11.9064 0.86509 12.0015 0.930982C12.104 0.989554 12.1809 1.07741 12.2322 1.19455C12.2834 1.30438 12.32 1.42152 12.342 1.54598C12.3713 1.66313 12.3859 1.82786 12.3859 2.04018C12.3859 2.2525 12.3823 2.45384 12.3749 2.6442C12.3676 2.83455 12.3566 3.09447 12.342 3.42393C12.3347 3.74607 12.331 4.04625 12.331 4.32447C12.331 4.405 12.3273 4.55875 12.32 4.78572C12.3127 5.01268 12.309 5.18839 12.309 5.31286C12.3164 5.43732 12.331 5.58741 12.353 5.76313C12.3749 5.93152 12.4152 6.07429 12.4738 6.19143C12.5397 6.30125 12.6239 6.38911 12.7264 6.455C12.7849 6.46964 12.8472 6.48429 12.9131 6.49893C12.9789 6.51357 13.0741 6.4733 13.1986 6.37813C13.3231 6.28295 13.4622 6.15848 13.6159 6.00473C13.7697 5.84366 13.96 5.59839 14.187 5.26893C14.4139 4.93214 14.6629 4.53679 14.9338 4.08286C15.3731 3.32143 15.7648 2.49777 16.1089 1.61188C16.1381 1.53866 16.1748 1.47643 16.2187 1.42518C16.2626 1.36661 16.3029 1.32634 16.3395 1.30438L16.3834 1.27143C16.3981 1.26411 16.4164 1.25679 16.4383 1.24947C16.4603 1.23482 16.5079 1.22384 16.5811 1.21652C16.6543 1.20188 16.7275 1.19821 16.8007 1.20554L19.9636 1.18357C20.2491 1.14697 20.4834 1.15795 20.6664 1.21652C20.8495 1.26777 20.963 1.32634 21.0069 1.39223L21.0728 1.50205Z" fill="white"/>
</svg>
